<?xml version="1.0" encoding="utf-8"?>
<!-- Generator: Adobe Illustrator 27.2.0, SVG Export Plug-In . SVG Version: 6.00 Build 0)  -->
<svg version="1.1" id="Layer_1" xmlns="http://www.w3.org/2000/svg" xmlns:xlink="http://www.w3.org/1999/xlink" x="0px" y="0px"
	 viewBox="0 0 582.4 366.2" style="enable-background:new 0 0 582.4 366.2;" xml:space="preserve">
<style type="text/css">
	.st0{fill:#2DA9D6;}
	.st1{fill:#232A34;}
</style>
<path class="st0" d="M396.5,353.4c-90.4,0-163.8-75.5-163.8-168.5S306.1,16.5,396.5,16.5S560.3,92,560.3,184.9
	S487.4,353.4,396.5,353.4z M396.5,64.2c-64.2,0-116.6,53.9-116.6,120.7s52.4,120.7,116.6,120.7s116.1-53.9,116.1-120.7
	S460.7,64.2,396.5,64.2z"/>
<path class="st1" d="M223.4,172.1c-1.5-37,18-79.6,43.7-105.3c3.6-3.6,7.2-6.7,10.8-9.8l8.2-19h-68.8l-67.8,159.2L81.1,37.5H11.8
	l115.6,270.7h44.2l53.4-125.3C223.9,179.8,223.9,176.2,223.4,172.1z"/>
</svg>
